<svg width="24" height="24" viewBox="0 0 24 24" fill="none" xmlns="http://www.w3.org/2000/svg">
<g clip-path="url(#clip0_33_0)">
<path d="M19.714 12C19.2406 12 18.8569 12.3838 18.8569 12.8572V21.4285C18.8569 21.9019 18.4731 22.2856 17.9997 22.2856H2.57139C2.098 22.2856 1.71425 21.9019 1.71425 21.4285V4.28584C1.71425 3.81244 2.098 3.42869 2.57139 3.42869H12.857C13.3304 3.42869 13.7141 3.04494 13.7141 2.57155C13.7141 2.09815 13.3304 1.71445 12.857 1.71445H2.57139C1.15125 1.71445 0 2.8657 0 4.28584V21.4285C0 22.8486 1.15125 23.9999 2.57139 23.9999H17.9998C19.4199 23.9999 20.5712 22.8486 20.5712 21.4285V12.8571C20.5712 12.3838 20.1874 12 19.714 12Z" fill="#ABABAB"/>
<path d="M23.0392 0.961356C22.4238 0.345828 21.589 9.6221e-05 20.7186 0.000196666C19.8477 -0.00231446 19.0121 0.34402 18.3984 0.961908L7.10817 12.2511C7.0145 12.3455 6.94384 12.4602 6.9016 12.5863L5.18735 17.7291C5.03774 18.1782 5.28057 18.6636 5.72971 18.8131C5.81684 18.8421 5.9081 18.857 5.9999 18.8571C6.09191 18.8569 6.18337 18.8421 6.27075 18.8134L11.4135 17.0991C11.5399 17.0569 11.6546 16.9859 11.7487 16.8917L23.0388 5.60157C24.3203 4.32029 24.3204 2.24278 23.0392 0.961356ZM21.8269 4.3904L10.6841 15.5331L7.35501 16.6448L8.46327 13.32L19.6103 2.17729C20.2231 1.56568 21.2157 1.56669 21.8274 2.1795C22.1195 2.47225 22.2841 2.86856 22.2854 3.28214C22.2864 3.69793 22.1214 4.0969 21.8269 4.3904Z" fill="#ABABAB"/>
</g>
<defs>
<clipPath id="clip0_33_0">
<rect width="24" height="24" fill="white"/>
</clipPath>
</defs>
</svg>
